HIERARCHY
ROOT Hips
{
  OFFSET 2.26061 22.2878 23.7974
  CHANNELS 6 Xposition Yposition Zposition Zrotation Xrotation Yrotation
  JOINT LeftUpLeg
  {
    OFFSET 8.64259 1.95398 -2.38835
    CHANNELS 3 Zrotation Xrotation Yrotation
    JOINT LeftLeg
    {
      OFFSET 43.7702 0 0
      CHANNELS 3 Zrotation Xrotation Yrotation
      JOINT LeftFoot
      {
        OFFSET 40.6238 0 0
        CHANNELS 3 Zrotation Xrotation Yrotation
        JOINT LeftToeBase
        {
          OFFSET 12.7242 0 0
          CHANNELS 3 Zrotation Xrotation Yrotation
          End Site
          {
            OFFSET 0 0 0
          }
        }
      }
    }
  }
  JOINT RightUpLeg
  {
    OFFSET -8.2249 1.95398 -2.59336
    CHANNELS 3 Zrotation Xrotation Yrotation
    JOINT RightLeg
    {
      OFFSET 43.5653 0 0
      CHANNELS 3 Zrotation Xrotation Yrotation
      JOINT RightFoot
      {
        OFFSET 40.6238 0 0
        CHANNELS 3 Zrotation Xrotation Yrotation
        JOINT RightToeBase
        {
          OFFSET 12.7242 0 0
          CHANNELS 3 Zrotation Xrotation Yrotation
          End Site
          {
            OFFSET 0 0 0
          }
        }
      }
    }
  }
  JOINT Spine
  {
    OFFSET 0.165834 0.87714 6.61349
    CHANNELS 3 Zrotation Xrotation Yrotation
    JOINT Spine1
    {
      OFFSET 7.38963 1.71661e-005 0
      CHANNELS 3 Zrotation Xrotation Yrotation
      JOINT Spine2
      {
        OFFSET 11.9445 1.14441e-005 0
        CHANNELS 3 Zrotation Xrotation Yrotation
        JOINT Spine3
        {
          OFFSET 14.7254 4.19617e-005 0
          CHANNELS 3 Zrotation Xrotation Yrotation
          JOINT Spine4
          {
            OFFSET 10.9679 0 0
            CHANNELS 3 Zrotation Xrotation Yrotation
            JOINT RightShoulder
            {
              OFFSET 2.46616 -1.6653 3.69651
              CHANNELS 3 Zrotation Xrotation Yrotation
              JOINT RightArm
              {
                OFFSET 13.0012 0 0
                CHANNELS 3 Zrotation Xrotation Yrotation
                JOINT RightForeArm
                {
                  OFFSET 28.7848 1.52588e-005 0
                  CHANNELS 3 Zrotation Xrotation Yrotation
                  JOINT RightHand
                  {
                    OFFSET 26.5688 1.52588e-005 0
                    CHANNELS 3 Zrotation Xrotation Yrotation
                    End Site
                    {
                      OFFSET 0 0 0
                    }
                  }
                }
              }
            }
            JOINT LeftShoulder
            {
              OFFSET 2.38034 -1.29275 -3.7523
              CHANNELS 3 Zrotation Xrotation Yrotation
              JOINT LeftArm
              {
                OFFSET 16.3182 6.10351e-005 0
                CHANNELS 3 Zrotation Xrotation Yrotation
                JOINT LeftForeArm
                {
                  OFFSET 27.0901 0 0
                  CHANNELS 3 Zrotation Xrotation Yrotation
                  JOINT LeftHand
                  {
                    OFFSET 24.5451 1.52588e-005 0
                    CHANNELS 3 Zrotation Xrotation Yrotation
                    End Site
                    {
                      OFFSET 0 0 0
                    }
                  }
                }
              }
            }
            JOINT Neck
            {
              OFFSET 5.0226 -0.0266342 0
              CHANNELS 3 Zrotation Xrotation Yrotation
              JOINT Head
              {
                OFFSET 6.69363 2.86102e-005 0
                CHANNELS 3 Zrotation Xrotation Yrotation
                End Site
                {
                  OFFSET 0 0 0
                }
              }
            }
          }
        }
      }
    }
  }
}
MOTION
Frames:	9
Frame Time:	0.0416667
43.3943 90.5258 45.4881 85.1494 -32.3284 86.2877 -172.831 -7.80525 91.5686 -32.6063 25.8268 2.8533 54.8406 -2.75939 -1.84023 51.1961 20.7185 13.903 177.328 35.7986 91.5108 -25.4459 -0.667723 -1.4267 60.2083 -0.754558 -0.303157 43.0264 0.320206 -6.6296 -1.64846 7.52639 -90.3136 11.8241 -3.42571 -0.260287 0.157698 -3.43384 -0.109095 -22.4101 -3.18893 -1.27885 -2.39743 -3.18893 -1.27885 98.35 -52.1145 -87.767 18.7878 -4.11076 30.322 -16.686 -33.2748 -43.7427 10.3531 -0.158319 4.91584 -95.6965 -43.0967 68.0216 -6.86798 -0.476203 -3.89216 14.9893 3.39577 -66.7204 12.1124 0.736934 2.13652 3.19858 0.377096 -2.20307 11.1808 1.38748 5.27682 
50.0973 89.3909 50.8549 86.6247 -35.2364 89.6539 -172.267 -5.07078 94.4954 -43.2674 23.5338 2.72106 40.4606 -11.4661 -9.18024 41.1261 11.1441 17.598 176.552 36.9093 95.2829 -40.3033 -2.20483 -0.392716 66.2756 -2.75663 -1.48934 33.6734 0.359026 -5.30095 -1.26958 7.58814 -90.7286 11.6842 -2.86696 -1.15238 0.0160625 -2.91487 -1.025 -22.5339 -2.38808 -1.96103 -2.52124 -2.38809 -1.96102 96.4895 -52.0799 -90.586 17.4727 -3.24103 28.559 -16.443 -33.9993 -42.0703 8.83051 -0.188331 5.7923 -97.809 -46.223 65.8685 -6.421 1.42273 -0.703909 13.8039 2.77581 -66.4764 10.6451 0.534732 1.10636 4.40818 0.500001 0.451384 8.69091 0.936344 4.58405 
55.6236 89.6256 56.0112 88.6662 -36.9998 91.0029 -172.747 2.6592 94.8129 -58.2977 18.9634 2.11704 38.6136 -12.4124 -7.08855 36.8662 6.57016 14.4839 176.99 32.407 96.842 -45.1152 -1.15592 -0.882835 72.6532 -4.93405 -2.4671 28.8571 0.197247 -2.91954 -0.850451 7.64372 -90.6177 11.5769 -1.98077 -1.02666 -0.0928598 -2.02406 -0.938468 -22.6331 -1.58069 -1.57455 -2.62042 -1.58069 -1.57455 96.7108 -51.8883 -90.2717 19.809 -3.4071 24.0403 -15.4603 -33.9871 -42.5837 7.89253 -0.184155 6.50863 -97.9505 -46.7484 65.8438 -9.53964 6.9882 -0.0736651 12.5406 4.74913 -60.1361 8.8302 0.416267 0.807433 3.68377 -0.22714 -0.202657 8.79472 0.282681 4.21275 
61.1281 91.7361 61.2551 88.7053 -38.0938 90.1397 -172.8 12.7078 93.1565 -64.0733 16.5031 1.1807 45.2596 -8.01881 -2.72445 38.4754 8.23185 15.2928 178.167 25.4029 96.9007 -41.8266 -0.471144 -2.25327 74.3216 -5.38671 -2.60097 29.1026 0.143044 -2.05857 -0.512673 7.57621 -90.4359 11.72 -1.22431 -0.741182 0.0494671 -1.25576 -0.686579 -22.4873 -0.944978 -1.07488 -2.47469 -0.944971 -1.07488 96.0097 -50.7273 -91.4705 23.6133 -4.97444 19.916 -15.0374 -29.3505 -46.6752 4.81178 -0.309987 5.6938 -98.9177 -48.7565 65.1307 -13.6378 11.3929 1.47639 12.6761 9.22687 -52.8702 9.12403 0.606214 2.52588 1.26868 -1.00721 0.525166 10.752 -0.638273 3.23353 
66.1589 94.1778 66.1743 88.941 -38.1509 89.5676 -173.449 20.13 91.7092 -59.9203 14.8438 0.772602 50.4892 -4.58386 -1.05113 40.2905 10.0502 14.965 178.154 16.671 96.7533 -34.3331 -0.700744 -2.72199 74.0623 -5.2418 -2.54271 29.3326 0.136518 -1.81082 -0.315683 7.56326 -90.2049 11.7448 -0.723941 -0.331615 0.0740678 -0.737836 -0.299437 -22.462 -0.590811 -0.533858 -2.44934 -0.590818 -0.533867 95.7326 -51.1633 -91.8415 25.2137 -7.71967 15.3264 -13.8784 -23.6567 -52.5186 -0.562167 -0.504495 2.82112 -99.2493 -50.0519 65.111 -18.493 14.2757 4.23041 10.2194 13.389 -44.2224 11.0442 0.883397 3.88707 0.243582 -1.4699 -0.43113 10.4943 -1.08277 2.46487 
71.5411 96.15 70.972 88.2762 -42.1308 87.2987 -172.265 23.2727 89.4694 -45.3435 12.2619 -1.09261 55.2911 -1.46513 0.379838 41.0928 10.9675 16.1007 177.798 9.3827 94.7876 -27.9478 -5.22608 -3.74996 72.0064 -4.84361 -2.41807 30.3709 0.214018 -2.66185 0.192612 7.53044 -89.8869 11.8126 0.436304 0.179203 0.141732 0.443758 0.159826 -22.3938 0.362261 0.302044 -2.38112 0.362263 0.302048 95.3255 -49.7942 -92.6456 26.85 -9.39785 9.67277 -15.1587 -19.4649 -59.3513 -3.86349 -0.549237 1.26728 -99.9855 -51.2569 64.4837 -24.0447 14.5109 8.66289 6.24288 14.3511 -35.7086 11.0893 0.931389 4.27271 -0.395658 -1.5764 0.773046 10.706 -1.51958 0.930395 
77.0781 96.7641 75.429 85.9516 -45.7465 85.2369 -172.493 24.2548 89.2971 -23.4929 7.46532 -1.81378 56.1724 -0.823172 0.175723 47.3016 17.2021 15.4841 176.968 4.77432 93.2497 -24.2786 -9.90428 -4.0398 70.3868 -4.57655 -2.33451 32.7488 0.273828 -2.58393 0.657173 7.40891 -89.7369 12.0539 1.43083 0.368714 0.383678 1.44565 0.305358 -22.1561 1.25386 0.781744 -2.14349 1.25386 0.781736 94.98 -47.3723 -93.5346 27.9831 -10.7351 3.67364 -16.3954 -16.2375 -66.7292 -5.41089 -0.472825 -0.624157 -100.61 -52.268 63.9615 -28.6987 14.5849 13.9208 4.32118 15.7465 -30.3211 9.10001 0.779747 4.27168 0.00701676 -1.57555 2.75299 10.3169 -1.96376 -0.769917 
82.8466 96.2851 79.5143 84.4035 -49.6976 85.162 -173.65 24.554 91.2564 -5.10183 2.58265 -0.749496 59.349 0.875275 -1.16749 45.401 16.0636 20.0524 176.076 0.338956 92.7516 -22.845 -14.1261 -4.19889 69.2412 -4.42167 -2.28549 37.0577 0.408905 -1.9733 1.1201 7.42251 -89.8093 12.0294 2.31694 0.127034 0.360538 2.32027 0.0248763 -22.1896 2.17159 0.817828 -2.177 2.17159 0.817822 94.5476 -43.1913 -94.9132 29.1643 -11.4382 -2.70364 -18.5968 -12.7193 -74.596 -5.77775 -0.465612 -0.665542 -100.21 -53.126 64.8295 -32.8152 14.6578 18.714 4.19976 17.9531 -28.4437 5.98334 0.531338 4.1462 0.239533 -1.82622 7.06619 11.6522 -3.27494 -4.66031 
88.7598 94.8637 83.7877 85.8516 -53.5225 86.6495 -173.819 27.4242 92.7847 -4.27969 0.812739 -0.138894 62.8018 1.9874 0.630252 45.5991 16.2623 19.915 175.989 -2.86161 91.1714 -27.1744 -17.8775 -6.38606 69.9053 -4.95954 -2.54394 42.2545 0.539807 -2.38865 1.54108 7.5793 -89.7391 11.716 3.18759 0.185442 0.0488997 3.19266 0.0448105 -22.5144 2.98436 1.13572 -2.50177 2.98436 1.1357 93.9557 -39.4792 -96.6373 30.2504 -11.0525 -6.84187 -20.1436 -10.0546 -80.1129 -6.14678 -0.449855 -0.906559 -97.8164 -53.3522 68.273 -35.9481 13.9901 23.5088 4.96838 19.7668 -28.2782 4.23776 0.34743 3.19066 1.85889 -1.51513 7.65373 10.0364 -3.16694 -5.54424 
